<svg xmlns="http://www.w3.org/2000/svg" version="1.1" xmlns:xlink="http://www.w3.org/1999/xlink" xmlns:svgjs="http://svgjs.dev/svgjs" width="1440" height="1440" preserveAspectRatio="none" viewBox="0 0 1440 1440">
	<g mask="url(&quot;#SvgjsMask1003&quot;)" fill="none">
		<path d="M120.51 57.05L185.47 94.55L185.47 169.55L120.51 207.05L55.56 169.55L55.56 94.55zM120.51 282.05L185.47 319.55L185.47 394.55L120.51 432.05L55.56 394.55L55.56 319.55zM55.56 394.55L120.51 432.05L120.51 507.05L55.56 544.55L-9.39 507.05L-9.39 432.05zM120.51 507.05L185.47 544.55L185.47 619.55L120.51 657.05L55.56 619.55L55.56 544.55zM120.51 732.05L185.47 769.55L185.47 844.55L120.51 882.05L55.56 844.55L55.56 769.55zM55.56 1069.55L120.51 1107.05L120.51 1182.05L55.56 1219.55L-9.39 1182.05L-9.39 1107.05zM120.51 1182.05L185.47 1219.55L185.47 1294.55L120.51 1332.05L55.56 1294.55L55.56 1219.55zM55.56 1294.55L120.51 1332.05L120.51 1407.05L55.56 1444.55L-9.39 1407.05L-9.39 1332.05zM120.51 1407.05L185.47 1444.55L185.47 1519.55L120.51 1557.05L55.56 1519.55L55.56 1444.55zM185.47 -55.45L250.42 -17.95L250.42 57.05L185.47 94.55L120.51 57.05L120.51 -17.95zM185.47 394.55L250.42 432.05L250.42 507.05L185.47 544.55L120.51 507.05L120.51 432.05zM250.42 507.05L315.38 544.55L315.38 619.55L250.42 657.05L185.47 619.55L185.47 544.55zM185.47 844.55L250.42 882.05L250.42 957.05L185.47 994.55L120.51 957.05L120.51 882.05zM185.47 1069.55L250.42 1107.05L250.42 1182.05L185.47 1219.55L120.51 1182.05L120.51 1107.05zM250.42 1182.05L315.38 1219.55L315.38 1294.55L250.42 1332.05L185.47 1294.55L185.47 1219.55zM380.33 57.05L445.28 94.55L445.28 169.55L380.33 207.05L315.38 169.55L315.38 94.55zM315.38 169.55L380.33 207.05L380.33 282.05L315.38 319.55L250.42 282.05L250.42 207.05zM315.38 394.55L380.33 432.05L380.33 507.05L315.38 544.55L250.42 507.05L250.42 432.05zM315.38 619.55L380.33 657.05L380.33 732.05L315.38 769.55L250.42 732.05L250.42 657.05zM380.33 732.05L445.28 769.55L445.28 844.55L380.33 882.05L315.38 844.55L315.38 769.55zM380.33 957.05L445.28 994.55L445.28 1069.55L380.33 1107.05L315.38 1069.55L315.38 994.55zM380.33 1407.05L445.28 1444.55L445.28 1519.55L380.33 1557.05L315.38 1519.55L315.38 1444.55zM445.28 169.55L510.24 207.05L510.24 282.05L445.28 319.55L380.33 282.05L380.33 207.05zM510.24 282.05L575.19 319.55L575.19 394.55L510.24 432.05L445.28 394.55L445.28 319.55zM445.28 619.55L510.24 657.05L510.24 732.05L445.28 769.55L380.33 732.05L380.33 657.05zM510.24 732.05L575.19 769.55L575.19 844.55L510.24 882.05L445.28 844.55L445.28 769.55zM510.24 957.05L575.19 994.55L575.19 1069.55L510.24 1107.05L445.28 1069.55L445.28 994.55zM445.28 1069.55L510.24 1107.05L510.24 1182.05L445.28 1219.55L380.33 1182.05L380.33 1107.05zM510.24 1182.05L575.19 1219.55L575.19 1294.55L510.24 1332.05L445.28 1294.55L445.28 1219.55zM445.28 1294.55L510.24 1332.05L510.24 1407.05L445.28 1444.55L380.33 1407.05L380.33 1332.05zM575.19 -55.45L640.14 -17.95L640.14 57.05L575.19 94.55L510.24 57.05L510.24 -17.95zM640.14 57.05L705.1 94.55L705.1 169.55L640.14 207.05L575.19 169.55L575.19 94.55zM575.19 169.55L640.14 207.05L640.14 282.05L575.19 319.55L510.24 282.05L510.24 207.05zM575.19 394.55L640.14 432.05L640.14 507.05L575.19 544.55L510.24 507.05L510.24 432.05zM640.14 507.05L705.1 544.55L705.1 619.55L640.14 657.05L575.19 619.55L575.19 544.55zM640.14 957.05L705.1 994.55L705.1 1069.55L640.14 1107.05L575.19 1069.55L575.19 994.55zM575.19 1294.55L640.14 1332.05L640.14 1407.05L575.19 1444.55L510.24 1407.05L510.24 1332.05zM705.1 -55.45L770.05 -17.95L770.05 57.05L705.1 94.55L640.14 57.05L640.14 -17.95zM770.05 282.05L835.01 319.55L835.01 394.55L770.05 432.05L705.1 394.55L705.1 319.55zM770.05 732.05L835.01 769.55L835.01 844.55L770.05 882.05L705.1 844.55L705.1 769.55zM705.1 844.55L770.05 882.05L770.05 957.05L705.1 994.55L640.14 957.05L640.14 882.05zM705.1 1069.55L770.05 1107.05L770.05 1182.05L705.1 1219.55L640.14 1182.05L640.14 1107.05zM770.05 1407.05L835.01 1444.55L835.01 1519.55L770.05 1557.05L705.1 1519.55L705.1 1444.55zM835 -55.45L899.96 -17.95L899.96 57.05L835 94.55L770.05 57.05L770.05 -17.95zM835 394.55L899.96 432.05L899.96 507.05L835 544.55L770.05 507.05L770.05 432.05zM899.96 507.05L964.91 544.55L964.91 619.55L899.96 657.05L835 619.55L835 544.55zM899.96 732.05L964.91 769.55L964.91 844.55L899.96 882.05L835 844.55L835 769.55zM899.96 1182.05L964.91 1219.55L964.91 1294.55L899.96 1332.05L835 1294.55L835 1219.55zM835 1294.55L899.96 1332.05L899.96 1407.05L835 1444.55L770.05 1407.05L770.05 1332.05zM899.96 1407.05L964.91 1444.55L964.91 1519.55L899.96 1557.05L835 1519.55L835 1444.55zM964.91 -55.45L1029.87 -17.95L1029.87 57.05L964.91 94.55L899.96 57.05L899.96 -17.95zM964.91 169.55L1029.87 207.05L1029.87 282.05L964.91 319.55L899.96 282.05L899.96 207.05zM1029.87 732.05L1094.82 769.55L1094.82 844.55L1029.87 882.05L964.91 844.55L964.91 769.55zM1029.87 957.05L1094.82 994.55L1094.82 1069.55L1029.87 1107.05L964.91 1069.55L964.91 994.55zM964.91 1069.55L1029.87 1107.05L1029.87 1182.05L964.91 1219.55L899.96 1182.05L899.96 1107.05zM964.91 1294.55L1029.87 1332.05L1029.87 1407.05L964.91 1444.55L899.96 1407.05L899.96 1332.05zM1094.82 -55.45L1159.77 -17.95L1159.77 57.05L1094.82 94.55L1029.87 57.05L1029.87 -17.95zM1094.82 169.55L1159.77 207.05L1159.77 282.05L1094.82 319.55L1029.87 282.05L1029.87 207.05zM1159.77 282.05L1224.73 319.55L1224.73 394.55L1159.77 432.05L1094.82 394.55L1094.82 319.55zM1094.82 394.55L1159.77 432.05L1159.77 507.05L1094.82 544.55L1029.87 507.05L1029.87 432.05zM1159.77 507.05L1224.73 544.55L1224.73 619.55L1159.77 657.05L1094.82 619.55L1094.82 544.55zM1159.77 957.05L1224.73 994.55L1224.73 1069.55L1159.77 1107.05L1094.82 1069.55L1094.82 994.55zM1094.82 1069.55L1159.77 1107.05L1159.77 1182.05L1094.82 1219.55L1029.87 1182.05L1029.87 1107.05zM1224.73 -55.45L1289.68 -17.95L1289.68 57.05L1224.73 94.55L1159.77 57.05L1159.77 -17.95zM1289.68 282.05L1354.63 319.55L1354.63 394.55L1289.68 432.05L1224.73 394.55L1224.73 319.55zM1289.68 732.05L1354.63 769.55L1354.63 844.55L1289.68 882.05L1224.73 844.55L1224.73 769.55zM1224.73 844.55L1289.68 882.05L1289.68 957.05L1224.73 994.55L1159.77 957.05L1159.77 882.05zM1289.68 957.05L1354.63 994.55L1354.63 1069.55L1289.68 1107.05L1224.73 1069.55L1224.73 994.55zM1224.73 1069.55L1289.68 1107.05L1289.68 1182.05L1224.73 1219.55L1159.77 1182.05L1159.77 1107.05zM1289.68 1407.05L1354.63 1444.55L1354.63 1519.55L1289.68 1557.05L1224.73 1519.55L1224.73 1444.55zM1354.63 -55.45L1419.59 -17.95L1419.59 57.05L1354.63 94.55L1289.68 57.05L1289.68 -17.95zM1354.63 169.55L1419.59 207.05L1419.59 282.05L1354.63 319.55L1289.68 282.05L1289.68 207.05zM1419.59 282.05L1484.54 319.55L1484.54 394.55L1419.59 432.05L1354.63 394.55L1354.63 319.55zM1354.63 394.55L1419.59 432.05L1419.59 507.05L1354.63 544.55L1289.68 507.05L1289.68 432.05zM1419.59 507.05L1484.54 544.55L1484.54 619.55L1419.59 657.05L1354.63 619.55L1354.63 544.55zM1354.63 844.55L1419.59 882.05L1419.59 957.05L1354.63 994.55L1289.68 957.05L1289.68 882.05zM1419.59 1182.05L1484.54 1219.55L1484.54 1294.55L1419.59 1332.05L1354.63 1294.55L1354.63 1219.55zM1549.5 57.05L1614.45 94.55L1614.45 169.55L1549.5 207.05L1484.54 169.55L1484.54 94.55zM1484.54 394.55L1549.5 432.05L1549.5 507.05L1484.54 544.55L1419.59 507.05L1419.59 432.05zM1549.5 507.05L1614.45 544.55L1614.45 619.55L1549.5 657.05L1484.54 619.55L1484.54 544.55zM1549.5 957.05L1614.45 994.55L1614.45 1069.55L1549.5 1107.05L1484.54 1069.55L1484.54 994.55zM1484.54 1069.55L1549.5 1107.05L1549.5 1182.05L1484.54 1219.55L1419.59 1182.05L1419.59 1107.05zM1549.5 1182.05L1614.45 1219.55L1614.45 1294.55L1549.5 1332.05L1484.54 1294.55L1484.54 1219.55zM1484.54 1294.55L1549.5 1332.05L1549.5 1407.05L1484.54 1444.55L1419.59 1407.05L1419.59 1332.05z" stroke="#808080" stroke-width="2"></path>
		<path d="M113.01 57.05 a7.5 7.5 0 1 0 15 0 a7.5 7.5 0 1 0 -15 0zM177.97 94.55 a7.5 7.5 0 1 0 15 0 a7.5 7.5 0 1 0 -15 0zM177.97 169.55 a7.5 7.5 0 1 0 15 0 a7.5 7.5 0 1 0 -15 0zM113.01 207.05 a7.5 7.5 0 1 0 15 0 a7.5 7.5 0 1 0 -15 0zM48.06 169.55 a7.5 7.5 0 1 0 15 0 a7.5 7.5 0 1 0 -15 0zM48.06 94.55 a7.5 7.5 0 1 0 15 0 a7.5 7.5 0 1 0 -15 0zM113.01 282.05 a7.5 7.5 0 1 0 15 0 a7.5 7.5 0 1 0 -15 0zM177.97 319.55 a7.5 7.5 0 1 0 15 0 a7.5 7.5 0 1 0 -15 0zM177.97 394.55 a7.5 7.5 0 1 0 15 0 a7.5 7.5 0 1 0 -15 0zM113.01 432.05 a7.5 7.5 0 1 0 15 0 a7.5 7.5 0 1 0 -15 0zM48.06 394.55 a7.5 7.5 0 1 0 15 0 a7.5 7.5 0 1 0 -15 0zM48.06 319.55 a7.5 7.5 0 1 0 15 0 a7.5 7.5 0 1 0 -15 0zM113.01 507.05 a7.5 7.5 0 1 0 15 0 a7.5 7.5 0 1 0 -15 0zM48.06 544.55 a7.5 7.5 0 1 0 15 0 a7.5 7.5 0 1 0 -15 0zM-16.89 507.05 a7.5 7.5 0 1 0 15 0 a7.5 7.5 0 1 0 -15 0zM-16.89 432.05 a7.5 7.5 0 1 0 15 0 a7.5 7.5 0 1 0 -15 0zM177.97 544.55 a7.5 7.5 0 1 0 15 0 a7.5 7.5 0 1 0 -15 0zM177.97 619.55 a7.5 7.5 0 1 0 15 0 a7.5 7.5 0 1 0 -15 0zM113.01 657.05 a7.5 7.5 0 1 0 15 0 a7.5 7.5 0 1 0 -15 0zM48.06 619.55 a7.5 7.5 0 1 0 15 0 a7.5 7.5 0 1 0 -15 0zM113.01 732.05 a7.5 7.5 0 1 0 15 0 a7.5 7.5 0 1 0 -15 0zM177.97 769.55 a7.5 7.5 0 1 0 15 0 a7.5 7.5 0 1 0 -15 0zM177.97 844.55 a7.5 7.5 0 1 0 15 0 a7.5 7.5 0 1 0 -15 0zM113.01 882.05 a7.5 7.5 0 1 0 15 0 a7.5 7.5 0 1 0 -15 0zM48.06 844.55 a7.5 7.5 0 1 0 15 0 a7.5 7.5 0 1 0 -15 0zM48.06 769.55 a7.5 7.5 0 1 0 15 0 a7.5 7.5 0 1 0 -15 0zM48.06 1069.55 a7.5 7.5 0 1 0 15 0 a7.5 7.5 0 1 0 -15 0zM113.01 1107.05 a7.5 7.5 0 1 0 15 0 a7.5 7.5 0 1 0 -15 0zM113.01 1182.05 a7.5 7.5 0 1 0 15 0 a7.5 7.5 0 1 0 -15 0zM48.06 1219.55 a7.5 7.5 0 1 0 15 0 a7.5 7.5 0 1 0 -15 0zM-16.89 1182.05 a7.5 7.5 0 1 0 15 0 a7.5 7.5 0 1 0 -15 0zM-16.89 1107.05 a7.5 7.5 0 1 0 15 0 a7.5 7.5 0 1 0 -15 0zM177.97 1219.55 a7.5 7.5 0 1 0 15 0 a7.5 7.5 0 1 0 -15 0zM177.97 1294.55 a7.5 7.5 0 1 0 15 0 a7.5 7.5 0 1 0 -15 0zM113.01 1332.05 a7.5 7.5 0 1 0 15 0 a7.5 7.5 0 1 0 -15 0zM48.06 1294.55 a7.5 7.5 0 1 0 15 0 a7.5 7.5 0 1 0 -15 0zM113.01 1407.05 a7.5 7.5 0 1 0 15 0 a7.5 7.5 0 1 0 -15 0zM48.06 1444.55 a7.5 7.5 0 1 0 15 0 a7.5 7.5 0 1 0 -15 0zM-16.89 1407.05 a7.5 7.5 0 1 0 15 0 a7.5 7.5 0 1 0 -15 0zM-16.89 1332.05 a7.5 7.5 0 1 0 15 0 a7.5 7.5 0 1 0 -15 0zM177.97 1444.55 a7.5 7.5 0 1 0 15 0 a7.5 7.5 0 1 0 -15 0zM177.97 1519.55 a7.5 7.5 0 1 0 15 0 a7.5 7.5 0 1 0 -15 0zM113.01 1557.05 a7.5 7.5 0 1 0 15 0 a7.5 7.5 0 1 0 -15 0zM48.06 1519.55 a7.5 7.5 0 1 0 15 0 a7.5 7.5 0 1 0 -15 0zM177.97 -55.45 a7.5 7.5 0 1 0 15 0 a7.5 7.5 0 1 0 -15 0zM242.92 -17.95 a7.5 7.5 0 1 0 15 0 a7.5 7.5 0 1 0 -15 0zM242.92 57.05 a7.5 7.5 0 1 0 15 0 a7.5 7.5 0 1 0 -15 0zM113.01 -17.95 a7.5 7.5 0 1 0 15 0 a7.5 7.5 0 1 0 -15 0zM242.92 432.05 a7.5 7.5 0 1 0 15 0 a7.5 7.5 0 1 0 -15 0zM242.92 507.05 a7.5 7.5 0 1 0 15 0 a7.5 7.5 0 1 0 -15 0zM307.88 544.55 a7.5 7.5 0 1 0 15 0 a7.5 7.5 0 1 0 -15 0zM307.88 619.55 a7.5 7.5 0 1 0 15 0 a7.5 7.5 0 1 0 -15 0zM242.92 657.05 a7.5 7.5 0 1 0 15 0 a7.5 7.5 0 1 0 -15 0zM242.92 882.05 a7.5 7.5 0 1 0 15 0 a7.5 7.5 0 1 0 -15 0zM242.92 957.05 a7.5 7.5 0 1 0 15 0 a7.5 7.5 0 1 0 -15 0zM177.97 994.55 a7.5 7.5 0 1 0 15 0 a7.5 7.5 0 1 0 -15 0zM113.01 957.05 a7.5 7.5 0 1 0 15 0 a7.5 7.5 0 1 0 -15 0zM177.97 1069.55 a7.5 7.5 0 1 0 15 0 a7.5 7.5 0 1 0 -15 0zM242.92 1107.05 a7.5 7.5 0 1 0 15 0 a7.5 7.5 0 1 0 -15 0zM242.92 1182.05 a7.5 7.5 0 1 0 15 0 a7.5 7.5 0 1 0 -15 0zM307.88 1219.55 a7.5 7.5 0 1 0 15 0 a7.5 7.5 0 1 0 -15 0zM307.88 1294.55 a7.5 7.5 0 1 0 15 0 a7.5 7.5 0 1 0 -15 0zM242.92 1332.05 a7.5 7.5 0 1 0 15 0 a7.5 7.5 0 1 0 -15 0zM372.83 57.05 a7.5 7.5 0 1 0 15 0 a7.5 7.5 0 1 0 -15 0zM437.78 94.55 a7.5 7.5 0 1 0 15 0 a7.5 7.5 0 1 0 -15 0zM437.78 169.55 a7.5 7.5 0 1 0 15 0 a7.5 7.5 0 1 0 -15 0zM372.83 207.05 a7.5 7.5 0 1 0 15 0 a7.5 7.5 0 1 0 -15 0zM307.88 169.55 a7.5 7.5 0 1 0 15 0 a7.5 7.5 0 1 0 -15 0zM307.88 94.55 a7.5 7.5 0 1 0 15 0 a7.5 7.5 0 1 0 -15 0zM372.83 282.05 a7.5 7.5 0 1 0 15 0 a7.5 7.5 0 1 0 -15 0zM307.88 319.55 a7.5 7.5 0 1 0 15 0 a7.5 7.5 0 1 0 -15 0zM242.92 282.05 a7.5 7.5 0 1 0 15 0 a7.5 7.5 0 1 0 -15 0zM242.92 207.05 a7.5 7.5 0 1 0 15 0 a7.5 7.5 0 1 0 -15 0zM307.88 394.55 a7.5 7.5 0 1 0 15 0 a7.5 7.5 0 1 0 -15 0zM372.83 432.05 a7.5 7.5 0 1 0 15 0 a7.5 7.5 0 1 0 -15 0zM372.83 507.05 a7.5 7.5 0 1 0 15 0 a7.5 7.5 0 1 0 -15 0zM372.83 657.05 a7.5 7.5 0 1 0 15 0 a7.5 7.5 0 1 0 -15 0zM372.83 732.05 a7.5 7.5 0 1 0 15 0 a7.5 7.5 0 1 0 -15 0zM307.88 769.55 a7.5 7.5 0 1 0 15 0 a7.5 7.5 0 1 0 -15 0zM242.92 732.05 a7.5 7.5 0 1 0 15 0 a7.5 7.5 0 1 0 -15 0zM437.78 769.55 a7.5 7.5 0 1 0 15 0 a7.5 7.5 0 1 0 -15 0zM437.78 844.55 a7.5 7.5 0 1 0 15 0 a7.5 7.5 0 1 0 -15 0zM372.83 882.05 a7.5 7.5 0 1 0 15 0 a7.5 7.5 0 1 0 -15 0zM307.88 844.55 a7.5 7.5 0 1 0 15 0 a7.5 7.5 0 1 0 -15 0zM372.83 957.05 a7.5 7.5 0 1 0 15 0 a7.5 7.5 0 1 0 -15 0zM437.78 994.55 a7.5 7.5 0 1 0 15 0 a7.5 7.5 0 1 0 -15 0zM437.78 1069.55 a7.5 7.5 0 1 0 15 0 a7.5 7.5 0 1 0 -15 0zM372.83 1107.05 a7.5 7.5 0 1 0 15 0 a7.5 7.5 0 1 0 -15 0zM307.88 1069.55 a7.5 7.5 0 1 0 15 0 a7.5 7.5 0 1 0 -15 0zM307.88 994.55 a7.5 7.5 0 1 0 15 0 a7.5 7.5 0 1 0 -15 0zM372.83 1407.05 a7.5 7.5 0 1 0 15 0 a7.5 7.5 0 1 0 -15 0zM437.78 1444.55 a7.5 7.5 0 1 0 15 0 a7.5 7.5 0 1 0 -15 0zM437.78 1519.55 a7.5 7.5 0 1 0 15 0 a7.5 7.5 0 1 0 -15 0zM372.83 1557.05 a7.5 7.5 0 1 0 15 0 a7.5 7.5 0 1 0 -15 0zM307.88 1519.55 a7.5 7.5 0 1 0 15 0 a7.5 7.5 0 1 0 -15 0zM307.88 1444.55 a7.5 7.5 0 1 0 15 0 a7.5 7.5 0 1 0 -15 0zM502.74 207.05 a7.5 7.5 0 1 0 15 0 a7.5 7.5 0 1 0 -15 0zM502.74 282.05 a7.5 7.5 0 1 0 15 0 a7.5 7.5 0 1 0 -15 0zM437.78 319.55 a7.5 7.5 0 1 0 15 0 a7.5 7.5 0 1 0 -15 0zM567.69 319.55 a7.5 7.5 0 1 0 15 0 a7.5 7.5 0 1 0 -15 0zM567.69 394.55 a7.5 7.5 0 1 0 15 0 a7.5 7.5 0 1 0 -15 0zM502.74 432.05 a7.5 7.5 0 1 0 15 0 a7.5 7.5 0 1 0 -15 0zM437.78 394.55 a7.5 7.5 0 1 0 15 0 a7.5 7.5 0 1 0 -15 0zM437.78 619.55 a7.5 7.5 0 1 0 15 0 a7.5 7.5 0 1 0 -15 0zM502.74 657.05 a7.5 7.5 0 1 0 15 0 a7.5 7.5 0 1 0 -15 0zM502.74 732.05 a7.5 7.5 0 1 0 15 0 a7.5 7.5 0 1 0 -15 0zM567.69 769.55 a7.5 7.5 0 1 0 15 0 a7.5 7.5 0 1 0 -15 0zM567.69 844.55 a7.5 7.5 0 1 0 15 0 a7.5 7.5 0 1 0 -15 0zM502.74 882.05 a7.5 7.5 0 1 0 15 0 a7.5 7.5 0 1 0 -15 0zM502.74 957.05 a7.5 7.5 0 1 0 15 0 a7.5 7.5 0 1 0 -15 0zM567.69 994.55 a7.5 7.5 0 1 0 15 0 a7.5 7.5 0 1 0 -15 0zM567.69 1069.55 a7.5 7.5 0 1 0 15 0 a7.5 7.5 0 1 0 -15 0zM502.74 1107.05 a7.5 7.5 0 1 0 15 0 a7.5 7.5 0 1 0 -15 0zM502.74 1182.05 a7.5 7.5 0 1 0 15 0 a7.5 7.5 0 1 0 -15 0zM437.78 1219.55 a7.5 7.5 0 1 0 15 0 a7.5 7.5 0 1 0 -15 0zM372.83 1182.05 a7.5 7.5 0 1 0 15 0 a7.5 7.5 0 1 0 -15 0zM567.69 1219.55 a7.5 7.5 0 1 0 15 0 a7.5 7.5 0 1 0 -15 0zM567.69 1294.55 a7.5 7.5 0 1 0 15 0 a7.5 7.5 0 1 0 -15 0zM502.74 1332.05 a7.5 7.5 0 1 0 15 0 a7.5 7.5 0 1 0 -15 0zM437.78 1294.55 a7.5 7.5 0 1 0 15 0 a7.5 7.5 0 1 0 -15 0zM502.74 1407.05 a7.5 7.5 0 1 0 15 0 a7.5 7.5 0 1 0 -15 0zM372.83 1332.05 a7.5 7.5 0 1 0 15 0 a7.5 7.5 0 1 0 -15 0zM567.69 -55.45 a7.5 7.5 0 1 0 15 0 a7.5 7.5 0 1 0 -15 0zM632.64 -17.95 a7.5 7.5 0 1 0 15 0 a7.5 7.5 0 1 0 -15 0zM632.64 57.05 a7.5 7.5 0 1 0 15 0 a7.5 7.5 0 1 0 -15 0zM567.69 94.55 a7.5 7.5 0 1 0 15 0 a7.5 7.5 0 1 0 -15 0zM502.74 57.05 a7.5 7.5 0 1 0 15 0 a7.5 7.5 0 1 0 -15 0zM502.74 -17.95 a7.5 7.5 0 1 0 15 0 a7.5 7.5 0 1 0 -15 0zM697.6 94.55 a7.5 7.5 0 1 0 15 0 a7.5 7.5 0 1 0 -15 0zM697.6 169.55 a7.5 7.5 0 1 0 15 0 a7.5 7.5 0 1 0 -15 0zM632.64 207.05 a7.5 7.5 0 1 0 15 0 a7.5 7.5 0 1 0 -15 0zM567.69 169.55 a7.5 7.5 0 1 0 15 0 a7.5 7.5 0 1 0 -15 0zM632.64 282.05 a7.5 7.5 0 1 0 15 0 a7.5 7.5 0 1 0 -15 0zM632.64 432.05 a7.5 7.5 0 1 0 15 0 a7.5 7.5 0 1 0 -15 0zM632.64 507.05 a7.5 7.5 0 1 0 15 0 a7.5 7.5 0 1 0 -15 0zM567.69 544.55 a7.5 7.5 0 1 0 15 0 a7.5 7.5 0 1 0 -15 0zM502.74 507.05 a7.5 7.5 0 1 0 15 0 a7.5 7.5 0 1 0 -15 0zM697.6 544.55 a7.5 7.5 0 1 0 15 0 a7.5 7.5 0 1 0 -15 0zM697.6 619.55 a7.5 7.5 0 1 0 15 0 a7.5 7.5 0 1 0 -15 0zM632.64 657.05 a7.5 7.5 0 1 0 15 0 a7.5 7.5 0 1 0 -15 0zM567.69 619.55 a7.5 7.5 0 1 0 15 0 a7.5 7.5 0 1 0 -15 0zM632.64 957.05 a7.5 7.5 0 1 0 15 0 a7.5 7.5 0 1 0 -15 0zM697.6 994.55 a7.5 7.5 0 1 0 15 0 a7.5 7.5 0 1 0 -15 0zM697.6 1069.55 a7.5 7.5 0 1 0 15 0 a7.5 7.5 0 1 0 -15 0zM632.64 1107.05 a7.5 7.5 0 1 0 15 0 a7.5 7.5 0 1 0 -15 0zM632.64 1332.05 a7.5 7.5 0 1 0 15 0 a7.5 7.5 0 1 0 -15 0zM632.64 1407.05 a7.5 7.5 0 1 0 15 0 a7.5 7.5 0 1 0 -15 0zM567.69 1444.55 a7.5 7.5 0 1 0 15 0 a7.5 7.5 0 1 0 -15 0zM697.6 -55.45 a7.5 7.5 0 1 0 15 0 a7.5 7.5 0 1 0 -15 0zM762.55 -17.95 a7.5 7.5 0 1 0 15 0 a7.5 7.5 0 1 0 -15 0zM762.55 57.05 a7.5 7.5 0 1 0 15 0 a7.5 7.5 0 1 0 -15 0zM762.55 282.05 a7.5 7.5 0 1 0 15 0 a7.5 7.5 0 1 0 -15 0zM827.51 319.55 a7.5 7.5 0 1 0 15 0 a7.5 7.5 0 1 0 -15 0zM827.51 394.55 a7.5 7.5 0 1 0 15 0 a7.5 7.5 0 1 0 -15 0zM762.55 432.05 a7.5 7.5 0 1 0 15 0 a7.5 7.5 0 1 0 -15 0zM697.6 394.55 a7.5 7.5 0 1 0 15 0 a7.5 7.5 0 1 0 -15 0zM697.6 319.55 a7.5 7.5 0 1 0 15 0 a7.5 7.5 0 1 0 -15 0zM762.55 732.05 a7.5 7.5 0 1 0 15 0 a7.5 7.5 0 1 0 -15 0zM827.51 769.55 a7.5 7.5 0 1 0 15 0 a7.5 7.5 0 1 0 -15 0zM827.51 844.55 a7.5 7.5 0 1 0 15 0 a7.5 7.5 0 1 0 -15 0zM762.55 882.05 a7.5 7.5 0 1 0 15 0 a7.5 7.5 0 1 0 -15 0zM697.6 844.55 a7.5 7.5 0 1 0 15 0 a7.5 7.5 0 1 0 -15 0zM697.6 769.55 a7.5 7.5 0 1 0 15 0 a7.5 7.5 0 1 0 -15 0zM762.55 957.05 a7.5 7.5 0 1 0 15 0 a7.5 7.5 0 1 0 -15 0zM632.64 882.05 a7.5 7.5 0 1 0 15 0 a7.5 7.5 0 1 0 -15 0zM762.55 1107.05 a7.5 7.5 0 1 0 15 0 a7.5 7.5 0 1 0 -15 0zM762.55 1182.05 a7.5 7.5 0 1 0 15 0 a7.5 7.5 0 1 0 -15 0zM697.6 1219.55 a7.5 7.5 0 1 0 15 0 a7.5 7.5 0 1 0 -15 0zM632.64 1182.05 a7.5 7.5 0 1 0 15 0 a7.5 7.5 0 1 0 -15 0zM762.55 1407.05 a7.5 7.5 0 1 0 15 0 a7.5 7.5 0 1 0 -15 0zM827.51 1444.55 a7.5 7.5 0 1 0 15 0 a7.5 7.5 0 1 0 -15 0zM827.51 1519.55 a7.5 7.5 0 1 0 15 0 a7.5 7.5 0 1 0 -15 0zM762.55 1557.05 a7.5 7.5 0 1 0 15 0 a7.5 7.5 0 1 0 -15 0zM697.6 1519.55 a7.5 7.5 0 1 0 15 0 a7.5 7.5 0 1 0 -15 0zM697.6 1444.55 a7.5 7.5 0 1 0 15 0 a7.5 7.5 0 1 0 -15 0zM827.5 -55.45 a7.5 7.5 0 1 0 15 0 a7.5 7.5 0 1 0 -15 0zM892.46 -17.95 a7.5 7.5 0 1 0 15 0 a7.5 7.5 0 1 0 -15 0zM892.46 57.05 a7.5 7.5 0 1 0 15 0 a7.5 7.5 0 1 0 -15 0zM827.5 94.55 a7.5 7.5 0 1 0 15 0 a7.5 7.5 0 1 0 -15 0zM827.5 394.55 a7.5 7.5 0 1 0 15 0 a7.5 7.5 0 1 0 -15 0zM892.46 432.05 a7.5 7.5 0 1 0 15 0 a7.5 7.5 0 1 0 -15 0zM892.46 507.05 a7.5 7.5 0 1 0 15 0 a7.5 7.5 0 1 0 -15 0zM827.5 544.55 a7.5 7.5 0 1 0 15 0 a7.5 7.5 0 1 0 -15 0zM762.55 507.05 a7.5 7.5 0 1 0 15 0 a7.5 7.5 0 1 0 -15 0zM957.41 544.55 a7.5 7.5 0 1 0 15 0 a7.5 7.5 0 1 0 -15 0zM957.41 619.55 a7.5 7.5 0 1 0 15 0 a7.5 7.5 0 1 0 -15 0zM892.46 657.05 a7.5 7.5 0 1 0 15 0 a7.5 7.5 0 1 0 -15 0zM827.5 619.55 a7.5 7.5 0 1 0 15 0 a7.5 7.5 0 1 0 -15 0zM892.46 732.05 a7.5 7.5 0 1 0 15 0 a7.5 7.5 0 1 0 -15 0zM957.41 769.55 a7.5 7.5 0 1 0 15 0 a7.5 7.5 0 1 0 -15 0zM957.41 844.55 a7.5 7.5 0 1 0 15 0 a7.5 7.5 0 1 0 -15 0zM892.46 882.05 a7.5 7.5 0 1 0 15 0 a7.5 7.5 0 1 0 -15 0zM827.5 844.55 a7.5 7.5 0 1 0 15 0 a7.5 7.5 0 1 0 -15 0zM827.5 769.55 a7.5 7.5 0 1 0 15 0 a7.5 7.5 0 1 0 -15 0zM892.46 1182.05 a7.5 7.5 0 1 0 15 0 a7.5 7.5 0 1 0 -15 0zM957.41 1219.55 a7.5 7.5 0 1 0 15 0 a7.5 7.5 0 1 0 -15 0zM957.41 1294.55 a7.5 7.5 0 1 0 15 0 a7.5 7.5 0 1 0 -15 0zM892.46 1332.05 a7.5 7.5 0 1 0 15 0 a7.5 7.5 0 1 0 -15 0zM827.5 1294.55 a7.5 7.5 0 1 0 15 0 a7.5 7.5 0 1 0 -15 0zM827.5 1219.55 a7.5 7.5 0 1 0 15 0 a7.5 7.5 0 1 0 -15 0zM892.46 1407.05 a7.5 7.5 0 1 0 15 0 a7.5 7.5 0 1 0 -15 0zM827.5 1444.55 a7.5 7.5 0 1 0 15 0 a7.5 7.5 0 1 0 -15 0zM762.55 1332.05 a7.5 7.5 0 1 0 15 0 a7.5 7.5 0 1 0 -15 0zM957.41 1444.55 a7.5 7.5 0 1 0 15 0 a7.5 7.5 0 1 0 -15 0zM957.41 1519.55 a7.5 7.5 0 1 0 15 0 a7.5 7.5 0 1 0 -15 0zM892.46 1557.05 a7.5 7.5 0 1 0 15 0 a7.5 7.5 0 1 0 -15 0zM827.5 1519.55 a7.5 7.5 0 1 0 15 0 a7.5 7.5 0 1 0 -15 0zM957.41 -55.45 a7.5 7.5 0 1 0 15 0 a7.5 7.5 0 1 0 -15 0zM1022.37 -17.95 a7.5 7.5 0 1 0 15 0 a7.5 7.5 0 1 0 -15 0zM1022.37 57.05 a7.5 7.5 0 1 0 15 0 a7.5 7.5 0 1 0 -15 0zM957.41 94.55 a7.5 7.5 0 1 0 15 0 a7.5 7.5 0 1 0 -15 0zM957.41 169.55 a7.5 7.5 0 1 0 15 0 a7.5 7.5 0 1 0 -15 0zM1022.37 207.05 a7.5 7.5 0 1 0 15 0 a7.5 7.5 0 1 0 -15 0zM1022.37 282.05 a7.5 7.5 0 1 0 15 0 a7.5 7.5 0 1 0 -15 0zM957.41 319.55 a7.5 7.5 0 1 0 15 0 a7.5 7.5 0 1 0 -15 0zM892.46 282.05 a7.5 7.5 0 1 0 15 0 a7.5 7.5 0 1 0 -15 0zM892.46 207.05 a7.5 7.5 0 1 0 15 0 a7.5 7.5 0 1 0 -15 0zM1022.37 732.05 a7.5 7.5 0 1 0 15 0 a7.5 7.5 0 1 0 -15 0zM1087.32 769.55 a7.5 7.5 0 1 0 15 0 a7.5 7.5 0 1 0 -15 0zM1087.32 844.55 a7.5 7.5 0 1 0 15 0 a7.5 7.5 0 1 0 -15 0zM1022.37 882.05 a7.5 7.5 0 1 0 15 0 a7.5 7.5 0 1 0 -15 0zM1022.37 957.05 a7.5 7.5 0 1 0 15 0 a7.5 7.5 0 1 0 -15 0zM1087.32 994.55 a7.5 7.5 0 1 0 15 0 a7.5 7.5 0 1 0 -15 0zM1087.32 1069.55 a7.5 7.5 0 1 0 15 0 a7.5 7.5 0 1 0 -15 0zM1022.37 1107.05 a7.5 7.5 0 1 0 15 0 a7.5 7.5 0 1 0 -15 0zM957.41 1069.55 a7.5 7.5 0 1 0 15 0 a7.5 7.5 0 1 0 -15 0zM957.41 994.55 a7.5 7.5 0 1 0 15 0 a7.5 7.5 0 1 0 -15 0zM1022.37 1182.05 a7.5 7.5 0 1 0 15 0 a7.5 7.5 0 1 0 -15 0zM892.46 1107.05 a7.5 7.5 0 1 0 15 0 a7.5 7.5 0 1 0 -15 0zM1022.37 1332.05 a7.5 7.5 0 1 0 15 0 a7.5 7.5 0 1 0 -15 0zM1022.37 1407.05 a7.5 7.5 0 1 0 15 0 a7.5 7.5 0 1 0 -15 0zM1087.32 -55.45 a7.5 7.5 0 1 0 15 0 a7.5 7.5 0 1 0 -15 0zM1152.27 -17.95 a7.5 7.5 0 1 0 15 0 a7.5 7.5 0 1 0 -15 0zM1152.27 57.05 a7.5 7.5 0 1 0 15 0 a7.5 7.5 0 1 0 -15 0zM1087.32 94.55 a7.5 7.5 0 1 0 15 0 a7.5 7.5 0 1 0 -15 0zM1087.32 169.55 a7.5 7.5 0 1 0 15 0 a7.5 7.5 0 1 0 -15 0zM1152.27 207.05 a7.5 7.5 0 1 0 15 0 a7.5 7.5 0 1 0 -15 0zM1152.27 282.05 a7.5 7.5 0 1 0 15 0 a7.5 7.5 0 1 0 -15 0zM1087.32 319.55 a7.5 7.5 0 1 0 15 0 a7.5 7.5 0 1 0 -15 0zM1217.23 319.55 a7.5 7.5 0 1 0 15 0 a7.5 7.5 0 1 0 -15 0zM1217.23 394.55 a7.5 7.5 0 1 0 15 0 a7.5 7.5 0 1 0 -15 0zM1152.27 432.05 a7.5 7.5 0 1 0 15 0 a7.5 7.5 0 1 0 -15 0zM1087.32 394.55 a7.5 7.5 0 1 0 15 0 a7.5 7.5 0 1 0 -15 0zM1152.27 507.05 a7.5 7.5 0 1 0 15 0 a7.5 7.5 0 1 0 -15 0zM1087.32 544.55 a7.5 7.5 0 1 0 15 0 a7.5 7.5 0 1 0 -15 0zM1022.37 507.05 a7.5 7.5 0 1 0 15 0 a7.5 7.5 0 1 0 -15 0zM1022.37 432.05 a7.5 7.5 0 1 0 15 0 a7.5 7.5 0 1 0 -15 0zM1217.23 544.55 a7.5 7.5 0 1 0 15 0 a7.5 7.5 0 1 0 -15 0zM1217.23 619.55 a7.5 7.5 0 1 0 15 0 a7.5 7.5 0 1 0 -15 0zM1152.27 657.05 a7.5 7.5 0 1 0 15 0 a7.5 7.5 0 1 0 -15 0zM1087.32 619.55 a7.5 7.5 0 1 0 15 0 a7.5 7.5 0 1 0 -15 0zM1152.27 957.05 a7.5 7.5 0 1 0 15 0 a7.5 7.5 0 1 0 -15 0zM1217.23 994.55 a7.5 7.5 0 1 0 15 0 a7.5 7.5 0 1 0 -15 0zM1217.23 1069.55 a7.5 7.5 0 1 0 15 0 a7.5 7.5 0 1 0 -15 0zM1152.27 1107.05 a7.5 7.5 0 1 0 15 0 a7.5 7.5 0 1 0 -15 0zM1152.27 1182.05 a7.5 7.5 0 1 0 15 0 a7.5 7.5 0 1 0 -15 0zM1087.32 1219.55 a7.5 7.5 0 1 0 15 0 a7.5 7.5 0 1 0 -15 0zM1217.23 -55.45 a7.5 7.5 0 1 0 15 0 a7.5 7.5 0 1 0 -15 0zM1282.18 -17.95 a7.5 7.5 0 1 0 15 0 a7.5 7.5 0 1 0 -15 0zM1282.18 57.05 a7.5 7.5 0 1 0 15 0 a7.5 7.5 0 1 0 -15 0zM1217.23 94.55 a7.5 7.5 0 1 0 15 0 a7.5 7.5 0 1 0 -15 0zM1282.18 282.05 a7.5 7.5 0 1 0 15 0 a7.5 7.5 0 1 0 -15 0zM1347.13 319.55 a7.5 7.5 0 1 0 15 0 a7.5 7.5 0 1 0 -15 0zM1347.13 394.55 a7.5 7.5 0 1 0 15 0 a7.5 7.5 0 1 0 -15 0zM1282.18 432.05 a7.5 7.5 0 1 0 15 0 a7.5 7.5 0 1 0 -15 0zM1282.18 732.05 a7.5 7.5 0 1 0 15 0 a7.5 7.5 0 1 0 -15 0zM1347.13 769.55 a7.5 7.5 0 1 0 15 0 a7.5 7.5 0 1 0 -15 0zM1347.13 844.55 a7.5 7.5 0 1 0 15 0 a7.5 7.5 0 1 0 -15 0zM1282.18 882.05 a7.5 7.5 0 1 0 15 0 a7.5 7.5 0 1 0 -15 0zM1217.23 844.55 a7.5 7.5 0 1 0 15 0 a7.5 7.5 0 1 0 -15 0zM1217.23 769.55 a7.5 7.5 0 1 0 15 0 a7.5 7.5 0 1 0 -15 0zM1282.18 957.05 a7.5 7.5 0 1 0 15 0 a7.5 7.5 0 1 0 -15 0zM1152.27 882.05 a7.5 7.5 0 1 0 15 0 a7.5 7.5 0 1 0 -15 0zM1347.13 994.55 a7.5 7.5 0 1 0 15 0 a7.5 7.5 0 1 0 -15 0zM1347.13 1069.55 a7.5 7.5 0 1 0 15 0 a7.5 7.5 0 1 0 -15 0zM1282.18 1107.05 a7.5 7.5 0 1 0 15 0 a7.5 7.5 0 1 0 -15 0zM1282.18 1182.05 a7.5 7.5 0 1 0 15 0 a7.5 7.5 0 1 0 -15 0zM1217.23 1219.55 a7.5 7.5 0 1 0 15 0 a7.5 7.5 0 1 0 -15 0zM1282.18 1407.05 a7.5 7.5 0 1 0 15 0 a7.5 7.5 0 1 0 -15 0zM1347.13 1444.55 a7.5 7.5 0 1 0 15 0 a7.5 7.5 0 1 0 -15 0zM1347.13 1519.55 a7.5 7.5 0 1 0 15 0 a7.5 7.5 0 1 0 -15 0zM1282.18 1557.05 a7.5 7.5 0 1 0 15 0 a7.5 7.5 0 1 0 -15 0zM1217.23 1519.55 a7.5 7.5 0 1 0 15 0 a7.5 7.5 0 1 0 -15 0zM1217.23 1444.55 a7.5 7.5 0 1 0 15 0 a7.5 7.5 0 1 0 -15 0zM1347.13 -55.45 a7.5 7.5 0 1 0 15 0 a7.5 7.5 0 1 0 -15 0zM1412.09 -17.95 a7.5 7.5 0 1 0 15 0 a7.5 7.5 0 1 0 -15 0zM1412.09 57.05 a7.5 7.5 0 1 0 15 0 a7.5 7.5 0 1 0 -15 0zM1347.13 94.55 a7.5 7.5 0 1 0 15 0 a7.5 7.5 0 1 0 -15 0zM1347.13 169.55 a7.5 7.5 0 1 0 15 0 a7.5 7.5 0 1 0 -15 0zM1412.09 207.05 a7.5 7.5 0 1 0 15 0 a7.5 7.5 0 1 0 -15 0zM1412.09 282.05 a7.5 7.5 0 1 0 15 0 a7.5 7.5 0 1 0 -15 0zM1282.18 207.05 a7.5 7.5 0 1 0 15 0 a7.5 7.5 0 1 0 -15 0zM1477.04 319.55 a7.5 7.5 0 1 0 15 0 a7.5 7.5 0 1 0 -15 0zM1477.04 394.55 a7.5 7.5 0 1 0 15 0 a7.5 7.5 0 1 0 -15 0zM1412.09 432.05 a7.5 7.5 0 1 0 15 0 a7.5 7.5 0 1 0 -15 0zM1412.09 507.05 a7.5 7.5 0 1 0 15 0 a7.5 7.5 0 1 0 -15 0zM1347.13 544.55 a7.5 7.5 0 1 0 15 0 a7.5 7.5 0 1 0 -15 0zM1282.18 507.05 a7.5 7.5 0 1 0 15 0 a7.5 7.5 0 1 0 -15 0zM1477.04 544.55 a7.5 7.5 0 1 0 15 0 a7.5 7.5 0 1 0 -15 0zM1477.04 619.55 a7.5 7.5 0 1 0 15 0 a7.5 7.5 0 1 0 -15 0zM1412.09 657.05 a7.5 7.5 0 1 0 15 0 a7.5 7.5 0 1 0 -15 0zM1347.13 619.55 a7.5 7.5 0 1 0 15 0 a7.5 7.5 0 1 0 -15 0zM1412.09 882.05 a7.5 7.5 0 1 0 15 0 a7.5 7.5 0 1 0 -15 0zM1412.09 957.05 a7.5 7.5 0 1 0 15 0 a7.5 7.5 0 1 0 -15 0zM1412.09 1182.05 a7.5 7.5 0 1 0 15 0 a7.5 7.5 0 1 0 -15 0zM1477.04 1219.55 a7.5 7.5 0 1 0 15 0 a7.5 7.5 0 1 0 -15 0zM1477.04 1294.55 a7.5 7.5 0 1 0 15 0 a7.5 7.5 0 1 0 -15 0zM1412.09 1332.05 a7.5 7.5 0 1 0 15 0 a7.5 7.5 0 1 0 -15 0zM1347.13 1294.55 a7.5 7.5 0 1 0 15 0 a7.5 7.5 0 1 0 -15 0zM1347.13 1219.55 a7.5 7.5 0 1 0 15 0 a7.5 7.5 0 1 0 -15 0zM1542 57.05 a7.5 7.5 0 1 0 15 0 a7.5 7.5 0 1 0 -15 0zM1606.95 94.55 a7.5 7.5 0 1 0 15 0 a7.5 7.5 0 1 0 -15 0zM1606.95 169.55 a7.5 7.5 0 1 0 15 0 a7.5 7.5 0 1 0 -15 0zM1542 207.05 a7.5 7.5 0 1 0 15 0 a7.5 7.5 0 1 0 -15 0zM1477.04 169.55 a7.5 7.5 0 1 0 15 0 a7.5 7.5 0 1 0 -15 0zM1477.04 94.55 a7.5 7.5 0 1 0 15 0 a7.5 7.5 0 1 0 -15 0zM1542 432.05 a7.5 7.5 0 1 0 15 0 a7.5 7.5 0 1 0 -15 0zM1542 507.05 a7.5 7.5 0 1 0 15 0 a7.5 7.5 0 1 0 -15 0zM1606.95 544.55 a7.5 7.5 0 1 0 15 0 a7.5 7.5 0 1 0 -15 0zM1606.95 619.55 a7.5 7.5 0 1 0 15 0 a7.5 7.5 0 1 0 -15 0zM1542 657.05 a7.5 7.5 0 1 0 15 0 a7.5 7.5 0 1 0 -15 0zM1542 957.05 a7.5 7.5 0 1 0 15 0 a7.5 7.5 0 1 0 -15 0zM1606.95 994.55 a7.5 7.5 0 1 0 15 0 a7.5 7.5 0 1 0 -15 0zM1606.95 1069.55 a7.5 7.5 0 1 0 15 0 a7.5 7.5 0 1 0 -15 0zM1542 1107.05 a7.5 7.5 0 1 0 15 0 a7.5 7.5 0 1 0 -15 0zM1477.04 1069.55 a7.5 7.5 0 1 0 15 0 a7.5 7.5 0 1 0 -15 0zM1477.04 994.55 a7.5 7.5 0 1 0 15 0 a7.5 7.5 0 1 0 -15 0zM1542 1182.05 a7.5 7.5 0 1 0 15 0 a7.5 7.5 0 1 0 -15 0zM1412.09 1107.05 a7.5 7.5 0 1 0 15 0 a7.5 7.5 0 1 0 -15 0zM1606.95 1219.55 a7.5 7.5 0 1 0 15 0 a7.5 7.5 0 1 0 -15 0zM1606.95 1294.55 a7.5 7.5 0 1 0 15 0 a7.5 7.5 0 1 0 -15 0zM1542 1332.05 a7.5 7.5 0 1 0 15 0 a7.5 7.5 0 1 0 -15 0zM1542 1407.05 a7.5 7.5 0 1 0 15 0 a7.5 7.5 0 1 0 -15 0zM1477.04 1444.55 a7.5 7.5 0 1 0 15 0 a7.5 7.5 0 1 0 -15 0zM1412.09 1407.05 a7.5 7.5 0 1 0 15 0 a7.5 7.5 0 1 0 -15 0z" fill="#808080"></path>
		<path d="M29.94 -28.58L73.24 -3.58L73.24 46.42L29.94 71.42L-13.36 46.42L-13.36 -3.58zM29.94 271.42L73.24 296.42L73.24 346.42L29.94 371.42L-13.36 346.42L-13.36 296.42zM29.94 1021.42L73.24 1046.42L73.24 1096.42L29.94 1121.42L-13.36 1096.42L-13.36 1046.42zM73.24 1396.42L116.55 1421.42L116.55 1471.42L73.24 1496.42L29.94 1471.42L29.94 1421.42zM116.55 -28.58L159.85 -3.58L159.85 46.42L116.55 71.42L73.24 46.42L73.24 -3.58zM159.85 196.42L203.15 221.42L203.15 271.42L159.85 296.42L116.55 271.42L116.55 221.42zM159.85 1096.42L203.15 1121.42L203.15 1171.42L159.85 1196.42L116.55 1171.42L116.55 1121.42zM203.15 -28.58L246.45 -3.58L246.45 46.42L203.15 71.42L159.85 46.42L159.85 -3.58zM246.45 346.42L289.75 371.42L289.75 421.42L246.45 446.42L203.15 421.42L203.15 371.42zM246.45 646.42L289.75 671.42L289.75 721.42L246.45 746.42L203.15 721.42L203.15 671.42zM203.15 721.42L246.45 746.42L246.45 796.42L203.15 821.42L159.85 796.42L159.85 746.42zM203.15 871.42L246.45 896.42L246.45 946.42L203.15 971.42L159.85 946.42L159.85 896.42zM246.45 946.42L289.75 971.42L289.75 1021.42L246.45 1046.42L203.15 1021.42L203.15 971.42zM203.15 1021.42L246.45 1046.42L246.45 1096.42L203.15 1121.42L159.85 1096.42L159.85 1046.42zM246.45 1246.42L289.75 1271.42L289.75 1321.42L246.45 1346.42L203.15 1321.42L203.15 1271.42zM203.15 1321.42L246.45 1346.42L246.45 1396.42L203.15 1421.42L159.85 1396.42L159.85 1346.42zM246.45 1396.42L289.75 1421.42L289.75 1471.42L246.45 1496.42L203.15 1471.42L203.15 1421.42zM289.75 571.42L333.06 596.42L333.06 646.42L289.75 671.42L246.45 646.42L246.45 596.42zM289.75 721.42L333.06 746.42L333.06 796.42L289.75 821.42L246.45 796.42L246.45 746.42zM289.75 1171.42L333.06 1196.42L333.06 1246.42L289.75 1271.42L246.45 1246.42L246.45 1196.42zM376.36 421.42L419.66 446.42L419.66 496.42L376.36 521.42L333.06 496.42L333.06 446.42zM419.66 796.42L462.97 821.42L462.97 871.42L419.66 896.42L376.36 871.42L376.36 821.42zM376.36 871.42L419.66 896.42L419.66 946.42L376.36 971.42L333.06 946.42L333.06 896.42zM419.66 946.42L462.97 971.42L462.97 1021.42L419.66 1046.42L376.36 1021.42L376.36 971.42zM462.97 -28.58L506.27 -3.58L506.27 46.42L462.97 71.42L419.66 46.42L419.66 -3.58zM462.97 271.42L506.27 296.42L506.27 346.42L462.97 371.42L419.66 346.42L419.66 296.42zM506.27 1246.42L549.57 1271.42L549.57 1321.42L506.27 1346.42L462.97 1321.42L462.97 1271.42zM549.57 121.42L592.87 146.42L592.87 196.42L549.57 221.42L506.27 196.42L506.27 146.42zM636.18 421.42L679.48 446.42L679.48 496.42L636.18 521.42L592.87 496.42L592.87 446.42zM679.48 496.42L722.78 521.42L722.78 571.42L679.48 596.42L636.18 571.42L636.18 521.42zM636.18 571.42L679.48 596.42L679.48 646.42L636.18 671.42L592.87 646.42L592.87 596.42zM636.18 721.42L679.48 746.42L679.48 796.42L636.18 821.42L592.87 796.42L592.87 746.42zM679.48 796.42L722.78 821.42L722.78 871.42L679.48 896.42L636.18 871.42L636.18 821.42zM636.18 1021.42L679.48 1046.42L679.48 1096.42L636.18 1121.42L592.87 1096.42L592.87 1046.42zM679.48 1096.42L722.78 1121.42L722.78 1171.42L679.48 1196.42L636.18 1171.42L636.18 1121.42zM636.18 1171.42L679.48 1196.42L679.48 1246.42L636.18 1271.42L592.87 1246.42L592.87 1196.42zM766.08 46.42L809.39 71.42L809.39 121.42L766.08 146.42L722.78 121.42L722.78 71.42zM722.78 121.42L766.08 146.42L766.08 196.42L722.78 221.42L679.48 196.42L679.48 146.42zM766.08 346.42L809.39 371.42L809.39 421.42L766.08 446.42L722.78 421.42L722.78 371.42zM722.78 571.42L766.08 596.42L766.08 646.42L722.78 671.42L679.48 646.42L679.48 596.42zM766.08 796.42L809.39 821.42L809.39 871.42L766.08 896.42L722.78 871.42L722.78 821.42zM722.78 871.42L766.08 896.42L766.08 946.42L722.78 971.42L679.48 946.42L679.48 896.42zM766.08 1246.42L809.39 1271.42L809.39 1321.42L766.08 1346.42L722.78 1321.42L722.78 1271.42zM766.08 1396.42L809.39 1421.42L809.39 1471.42L766.08 1496.42L722.78 1471.42L722.78 1421.42zM809.39 -28.58L852.69 -3.58L852.69 46.42L809.39 71.42L766.08 46.42L766.08 -3.58zM852.69 196.42L895.99 221.42L895.99 271.42L852.69 296.42L809.39 271.42L809.39 221.42zM809.39 271.42L852.69 296.42L852.69 346.42L809.39 371.42L766.08 346.42L766.08 296.42zM852.69 1396.42L895.99 1421.42L895.99 1471.42L852.69 1496.42L809.39 1471.42L809.39 1421.42zM895.99 271.42L939.29 296.42L939.29 346.42L895.99 371.42L852.69 346.42L852.69 296.42zM895.99 871.42L939.29 896.42L939.29 946.42L895.99 971.42L852.69 946.42L852.69 896.42zM982.6 121.42L1025.9 146.42L1025.9 196.42L982.6 221.42L939.29 196.42L939.29 146.42zM982.6 271.42L1025.9 296.42L1025.9 346.42L982.6 371.42L939.29 346.42L939.29 296.42zM982.6 571.42L1025.9 596.42L1025.9 646.42L982.6 671.42L939.29 646.42L939.29 596.42zM1025.9 796.42L1069.2 821.42L1069.2 871.42L1025.9 896.42L982.6 871.42L982.6 821.42zM982.6 1021.42L1025.9 1046.42L1025.9 1096.42L982.6 1121.42L939.29 1096.42L939.29 1046.42zM1025.9 1096.42L1069.2 1121.42L1069.2 1171.42L1025.9 1196.42L982.6 1171.42L982.6 1121.42zM1069.2 -28.58L1112.5 -3.58L1112.5 46.42L1069.2 71.42L1025.9 46.42L1025.9 -3.58zM1112.5 46.42L1155.81 71.42L1155.81 121.42L1112.5 146.42L1069.2 121.42L1069.2 71.42zM1069.2 121.42L1112.5 146.42L1112.5 196.42L1069.2 221.42L1025.9 196.42L1025.9 146.42zM1069.2 721.42L1112.5 746.42L1112.5 796.42L1069.2 821.42L1025.9 796.42L1025.9 746.42zM1069.2 1021.42L1112.5 1046.42L1112.5 1096.42L1069.2 1121.42L1025.9 1096.42L1025.9 1046.42zM1155.81 121.42L1199.11 146.42L1199.11 196.42L1155.81 221.42L1112.5 196.42L1112.5 146.42zM1199.11 196.42L1242.41 221.42L1242.41 271.42L1199.11 296.42L1155.81 271.42L1155.81 221.42zM1199.11 346.42L1242.41 371.42L1242.41 421.42L1199.11 446.42L1155.81 421.42L1155.81 371.42zM1199.11 646.42L1242.41 671.42L1242.41 721.42L1199.11 746.42L1155.81 721.42L1155.81 671.42zM1242.41 121.42L1285.71 146.42L1285.71 196.42L1242.41 221.42L1199.11 196.42L1199.11 146.42zM1242.41 1021.42L1285.71 1046.42L1285.71 1096.42L1242.41 1121.42L1199.11 1096.42L1199.11 1046.42zM1372.32 46.42L1415.62 71.42L1415.62 121.42L1372.32 146.42L1329.02 121.42L1329.02 71.42zM1372.32 346.42L1415.62 371.42L1415.62 421.42L1372.32 446.42L1329.02 421.42L1329.02 371.42zM1329.02 421.42L1372.32 446.42L1372.32 496.42L1329.02 521.42L1285.71 496.42L1285.71 446.42zM1372.32 646.42L1415.62 671.42L1415.62 721.42L1372.32 746.42L1329.02 721.42L1329.02 671.42zM1329.02 1021.42L1372.32 1046.42L1372.32 1096.42L1329.02 1121.42L1285.71 1096.42L1285.71 1046.42zM1329.02 1321.42L1372.32 1346.42L1372.32 1396.42L1329.02 1421.42L1285.71 1396.42L1285.71 1346.42zM1372.32 1396.42L1415.62 1421.42L1415.62 1471.42L1372.32 1496.42L1329.02 1471.42L1329.02 1421.42zM1415.62 -28.58L1458.92 -3.58L1458.92 46.42L1415.62 71.42L1372.32 46.42L1372.32 -3.58zM1415.62 421.42L1458.92 446.42L1458.92 496.42L1415.62 521.42L1372.32 496.42L1372.32 446.42zM1415.62 571.42L1458.92 596.42L1458.92 646.42L1415.62 671.42L1372.32 646.42L1372.32 596.42zM1415.62 721.42L1458.92 746.42L1458.92 796.42L1415.62 821.42L1372.32 796.42L1372.32 746.42zM1415.62 871.42L1458.92 896.42L1458.92 946.42L1415.62 971.42L1372.32 946.42L1372.32 896.42zM1458.92 1096.42L1502.23 1121.42L1502.23 1171.42L1458.92 1196.42L1415.62 1171.42L1415.62 1121.42z" stroke="#ffffff" stroke-width="2"></path>
	</g>
	<defs>
		<mask id="SvgjsMask1003">
			<rect width="1440" height="1440" fill="#ffffff"></rect>
		</mask>
	</defs>
</svg>