<svg xmlns="http://www.w3.org/2000/svg" viewBox="0 0 24 24"><path d="M2.25 4.875a3.375 3.375 0 1 1 4.5 3.183v7.884a3.377 3.377 0 1 1-2.25 0V8.058A3.375 3.375 0 0 1 2.25 4.875Zm8.515-0.265L14.361.016A0.3750.375 0 0 1 15 1.281V3.75h1.5A3.75 3.75 0 0 1 20.25 7.5v8.442a3.377 3.377 0 1 1-2.25 0V7.5a1.5 1.5 0 0 0-1.5-1.5h-1.5v2.469a0.3750.375 0 0 1-0.640.265L10.765 5.141a0.3750.375 0 0 1 0-0.531ZM5.625 3.75a1.1251.125 0 1 0 0 2.251.1251.125 0 0 0 0-2.25Zm0 14.25a1.1251.125 0 1 0 0 2.251.1251.125 0 0 0 0-2.25Zm12.3751.125a1.1251.125 0 1 0 2.25 0 1.1251.125 0 0 0-2.25 0Z"/></svg>