<?xml version="1.0" encoding="UTF-8" standalone="no"?>
<!-- Created with Inkscape (http://www.inkscape.org/) -->

<svg
   width="24"
   height="24"
   viewBox="0 0 6.3499999 6.3500003"
   version="1.1"
   id="svg4707"
   inkscape:version="1.1.2 (b8e25be833, 2022-02-05)"
   sodipodi:docname="logo.svg"
   xmlns:inkscape="http://www.inkscape.org/namespaces/inkscape"
   xmlns:sodipodi="http://sodipodi.sourceforge.net/DTD/sodipodi-0.dtd"
   xmlns="http://www.w3.org/2000/svg"
   xmlns:svg="http://www.w3.org/2000/svg">
  <sodipodi:namedview
     id="namedview4709"
     pagecolor="#505050"
     bordercolor="#eeeeee"
     borderopacity="1"
     inkscape:pageshadow="0"
     inkscape:pageopacity="0"
     inkscape:pagecheckerboard="0"
     inkscape:document-units="px"
     showgrid="false"
     fit-margin-top="0"
     fit-margin-left="0"
     fit-margin-right="0"
     fit-margin-bottom="0"
     units="px"
     inkscape:zoom="24.886869"
     inkscape:cx="10.808913"
     inkscape:cy="12.878277"
     inkscape:window-width="2108"
     inkscape:window-height="1088"
     inkscape:window-x="911"
     inkscape:window-y="154"
     inkscape:window-maximized="0"
     inkscape:current-layer="g20370" />
  <defs
     id="defs4704" />
  <g
     inkscape:groupmode="layer"
     id="layer2"
     inkscape:label="Layer 2"
     style="display:inline;opacity:1;mix-blend-mode:darken" />
  <g
     inkscape:label="Layer 1 copy copy copy copy"
     inkscape:groupmode="layer"
     id="g20370"
     transform="translate(-121.73311,-150.85832)"
     style="display:inline;opacity:1;mix-blend-mode:normal">
    <path
       style="mix-blend-mode:normal;fill:#ffffff;fill-opacity:1;stroke:#000000;stroke-width:0.26458334;stroke-linecap:butt;stroke-linejoin:round;stroke-miterlimit:6.19999981;stroke-dasharray:none;stroke-opacity:1;paint-order:stroke fill markers"
       d="m 124.97518,153.24603 a 0.19850179,0.19850179 0 0 0 -0.14005,0.34468 l 0.63459,0.58084 -0.63459,0.58136 a 0.19861149,0.19861149 0 0 0 0.2682,0.29301 h 5.3e-4 l 0.53434,-0.49041 a 1.1893021,1.1893021 0 0 1 -0.002,-0.76998 l -0.53226,-0.48783 a 0.19850179,0.19850179 0 0 0 -0.12868,-0.0517 z"
       id="path20558" />
    <path
       style="mix-blend-mode:normal;fill:#ffffff;fill-opacity:1;stroke:#000000;stroke-width:0.26458334;stroke-linecap:butt;stroke-linejoin:round;stroke-miterlimit:6.19999981;stroke-dasharray:none;stroke-opacity:1;paint-order:stroke fill markers"
       d="m 124.17006,153.2455 a 0.1984375,0.1984375 0 0 0 -0.12868,0.0522 l -0.79375,0.7276 a 0.1984375,0.1984375 0 0 0 0,0.29301 l 0.79375,0.7276 a 0.19861003,0.19861003 0 0 0 0.2682,-0.293 l -0.63407,-0.58136 0.63407,-0.58084 a 0.1984375,0.1984375 0 0 0 0.0119,-0.28061 0.1984375,0.1984375 0 0 0 -0.15141,-0.0646 z"
       id="path20556" />
    <path
       style="mix-blend-mode:normal;fill:#ffffff;fill-opacity:1;stroke:#000000;stroke-width:0.26458334;stroke-linecap:butt;stroke-linejoin:round;stroke-miterlimit:6.19999981;stroke-dasharray:none;stroke-opacity:1;paint-order:stroke fill markers"
       d="m 126.76421,153.2415 a 0.92498333,0.92498333 0 0 0 -0.0853,0.004 0.92604166,0.92604166 0 0 0 -0.66818,1.46192 l -0.80098,1.38648 a 0.38595915,0.38595915 0 0 0 0.66869,0.38551 l 0.80202,-1.38907 a 0.92630625,0.92630625 0 0 0 0.78703,-1.52445 l -0.43667,0.75654 a 0.30876876,0.30876876 0 1 1 -0.53433,-0.30902 l 0.43667,-0.75603 a 0.92498333,0.92498333 0 0 0 -0.16899,-0.0155 z"
       id="path20554" />
    <path
       style="mix-blend-mode:normal;fill:#ffffff;fill-opacity:1;stroke:#000000;stroke-width:0.26458334;stroke-linecap:butt;stroke-linejoin:round;stroke-miterlimit:6.19999981;stroke-dasharray:none;stroke-opacity:1;paint-order:stroke fill markers"
       d="m 123.05126,151.39355 c -0.25241,0 -0.4808,0.1008 -0.64802,0.26458 h -0.0134 v 0.0129 c -0.16378,0.16722 -0.26458,0.39613 -0.26458,0.64854 v 2.9099 a 0.92604166,0.92604166 0 0 0 0.92604,0.92656 h 1.8557 c 0.0135,-0.0667 0.0379,-0.13238 0.0739,-0.19482 l 0.19327,-0.33486 h -2.12287 a 0.39687501,0.39687501 0 0 1 -0.39687,-0.39688 v -2.51354 h 3.70416 v 0.33228 a 1.1945937,1.1945937 0 0 1 0.52917,-0.0651 v -0.66353 c 0,-0.25241 -0.1008,-0.48132 -0.26458,-0.64854 v -0.0129 h -0.0134 a 0.92313125,0.92313125 0 0 0 -0.64802,-0.26458 z"
       id="path20368" />
  </g>
</svg>
